<svg height="464pt" viewBox="0 0 464.05199 464" width="464pt" xmlns="http://www.w3.org/2000/svg"><path d="m232.03125.0273438c-93.84375-.0117188-178.457031 56.5117182-214.371094 143.2109372-35.914062 86.703125-16.058594 186.5 50.304688 252.851563l328.128906-328.128906c-43.46875-43.570313-102.515625-68.0195318-164.0625-67.9335942zm0 0" fill="#ffd31c"/><path d="m67.964844 396.089844c90.613281 90.609375 237.519531 90.609375 328.128906 0s90.609375-237.519532 0-328.128906zm0 0" fill="#ffcd00"/><path d="m232.03125 280.027344c-48.640625 0-88 32.238281-88 72-.011719.621094.015625 1.242187.078125 1.863281 51.726563 40.179687 124.113281 40.179687 175.839844 0 .0625-.621094.089843-1.242187.082031-1.863281 0-39.761719-39.359375-72-88-72zm0 0" fill="#ff3051"/><path d="m144.109375 353.890625c-.0625-.621094-.089844-1.242187-.078125-1.863281 0-39.761719 39.359375-72 88-72s88 32.238281 88 72c.007812.621094-.019531 1.242187-.082031 1.863281 35.363281-27.1875 56.082031-69.261719 56.082031-113.863281h-288c-.003906 44.601562 20.71875 86.675781 56.078125 113.863281zm0 0" fill="#898890"/><g fill="#0b7"><path d="m192.03125 144.027344c0 17.671875-14.328125 32-32 32-17.675781 0-32-14.328125-32-32 0-17.675782 14.324219-32 32-32 17.671875 0 32 14.324218 32 32zm0 0"/><path d="m336.03125 144.027344c0 17.671875-14.328125 32-32 32-17.675781 0-32-14.328125-32-32 0-17.675782 14.324219-32 32-32 17.671875 0 32 14.324218 32 32zm0 0"/></g></svg>